PathFileType	4	(X/Y/Z)	Walk4.trc
DataRate	CameraRate	NumFrames	NumMarkers	Units	OrigDataRate	OrigDataStartFrame	OrigNumFrames
200.000000	200.000000	5	61	mm	200.000000	410	476
Frame#	Times		LFHD		RFHD		CLAV		LASI		RASI		RACR1		RUA1		RWRU		RCAR		LACR1		LUA1		LWRU		LCAR		RTH3		RTB1		LTH1		LTH2		LTH4		LLFC		LTB1		LTB2		LTB4		LTH3		LFA1		RTH2		LToe		LTB3		STRN		RTB4		LBHD		RWRR		RTB3		RMT5		RFA1		RMFC		RToe		RTH4		RTH1		RLFC		RMT1		RTB2		LElbow		RMMAL		LWRR		LMFC		T10		RElbow		LPSI		LMT1		RBack		LCAL		RBHD		LMMAL		RPSI		RElbowM		RLMAL		RCAL		C7		LMT5		LElbowM		LLMAL
			X1	Y1	Z1	X2	Y2	Z2	X3	Y3	Z3	X4	Y4	Z4	X5	Y5	Z5	X6	Y6	Z6	X7	Y7	Z7	X8	Y8	Z8	X9	Y9	Z9	X10	Y10	Z10	X11	Y11	Z11	X12	Y12	Z12	X13	Y13	Z13	X14	Y14	Z14	X15	Y15	Z15	X16	Y16	Z16	X17	Y17	Z17	X18	Y18	Z18	X19	Y19	Z19	X20	Y20	Z20	X21	Y21	Z21	X22	Y22	Z22	X23	Y23	Z23	X24	Y24	Z24	X25	Y25	Z25	X26	Y26	Z26	X27	Y27	Z27	X28	Y28	Z28	X29	Y29	Z29	X30	Y30	Z30	X31	Y31	Z31	X32	Y32	Z32	X33	Y33	Z33	X34	Y34	Z34	X35	Y35	Z35	X36	Y36	Z36	X37	Y37	Z37	X38	Y38	Z38	X39	Y39	Z39	X40	Y40	Z40	X41	Y41	Z41	X42	Y42	Z42	X43	Y43	Z43	X44	Y44	Z44	X45	Y45	Z45	X46	Y46	Z46	X47	Y47	Z47	X48	Y48	Z48	X49	Y49	Z49	X50	Y50	Z50	X51	Y51	Z51	X52	Y52	Z52	X53	Y53	Z53	X54	Y54	Z54	X55	Y55	Z55	X56	Y56	Z56	X57	Y57	Z57	X58	Y58	Z58	X59	Y59	Z59	X60	Y60	Z60	X61	Y61	Z61

410	2.05	1212.7	1581	-51.858	1208.3	1583.1	47.868	1205.8	1302.2	-0.36013	1193.9	898.01	-102.21	1184.2	892	145.78	1141.9	1339.1	166.05	1147.1	1170.7	222.5	1325.9	818.22	237.95	1340.4	752.1	286.37	1120.9	1341.5	-150.94	1083.2	1172.9	-214.08	1021.8	773.74	-271.07	970.63	722.53	-304.25	1116.9	550.17	181.18	1020.9	307.96	130.49	1178	730.75	-171.76	1254.5	672.26	-133.85	1201.6	649.59	-151.95	1267.5	439.31	-97.986	1300.8	343.91	-24.758	1280.9	254.21	-77.208	1288.3	258.77	-16.684	1226.1	571	-127.71	1003.7	898.66	-270.73	1174.1	636.41	168.73	1419.8	27.023	5.1717	1280.9	175.15	-6.9807	1232.6	1167.7	5.6055	946.25	263.32	124.04	1080.8	1497	-77.963	1276.4	788.48	274.1	871.13	221.81	114.92	735.83	90.885	126.6	1234.4	899.81	277	1073.8	398.99	31.791	783.93	29.095	80.312	1122.6	633.02	195.11	1130.6	718.32	211.99	1087.5	401.51	159.95	765.77	74.858	47.539	919.84	303.05	163.57	1023.1	1029.9	-236.89	773.34	207.81	51.491	954.88	789.81	-262.33	1239.5	433.9	30.694	1017.6	1183.8	13.212	1147.7	1004.2	260.2	1013.9	944.7	-33.027	1362.9	30.193	28.683	1018.2	1273.2	85.208	1171	35.583	-10.611	1076.5	1507	67.15	1235.4	84.081	31.547	1014.1	936.69	67.28	1119	993.86	186.04	748.93	210.93	130.11	712.17	248.72	89.165	1085.9	1397	-1.0379	1334.5	23.92	-55.407	1010.3	1010.5	-163.42	1229.9	62.986	-49.888
411	2.055	1220.6	1581.8	-52.332	1216.1	1584.3	47.38	1213.3	1303	-0.21554	1201.2	899.25	-102.77	1191.2	892.92	145.48	1149.4	1340.2	165.99	1154.7	1171.7	222.37	1329.8	816.07	238.32	1343.3	750.12	287.17	1129.1	1342.4	-150.94	1093.1	1173.3	-214.14	1036.9	773.81	-272.5	986.81	722.23	-306.47	1129.5	550.53	181.18	1036	308.45	130.13	1184.4	731.52	-172.14	1260.3	672.16	-134.42	1207.1	650.09	-152.39	1270.8	438.89	-98.633	1303.7	343.26	-25.519	1282.5	253.71	-77.757	1290.3	258.26	-17.29	1230.8	571.25	-128.2	1017	898.36	-271.94	1185.3	637.83	168.43	1419.8	26.91	5.0223	1282	174.72	-7.4668	1239.8	1168.3	5.9149	960.77	264.54	123.75	1088.8	1497.7	-78.292	1279.9	787.42	274.71	885.19	223.74	114.71	750.07	94.372	127.84	1239.8	899.55	277.13	1089.8	398.71	31.482	797.96	30.804	82.927	1133.7	633.43	194.88	1140.2	718.98	211.54	1102.7	401.63	159.95	780.32	77.21	49.272	934.88	304.36	163.55	1034.4	1029.9	-237.8	787.31	210.5	51.357	969.76	788.82	-264	1243.7	433.87	30.215	1024.9	1184.9	13.047	1154.8	1005.2	259.95	1021.1	945.63	-33.105	1362.8	30.288	28.538	1025.7	1274.4	85.118	1170.9	35.606	-10.746	1084.4	1508.2	66.821	1235.6	84.161	31.356	1021.2	937.47	67.112	1126.3	995	185.63	762.81	214.11	129.93	725.83	251.57	88.652	1093.7	1398	-1.1061	1334.4	23.961	-55.698	1021.4	1010.2	-164.27	1229.8	62.925	-50.058
412	2.06	1228.5	1582.7	-52.777	1224	1585.4	46.92	1220.7	1303.9	-0.041659	1208.4	900.49	-103.3	1198.2	893.97	145.2	1156.8	1341.3	165.97	1162.2	1172.8	222.28	1333.6	814.02	238.7	1346	748.2	287.93	1137.2	1343.4	-150.92	1102.9	1173.9	-214.16	1052.2	774.02	-273.86	1003.2	722.03	-308.57	1141.9	551.16	181.21	1051.1	309.16	129.78	1190.7	732.29	-172.47	1265.9	672.01	-134.94	1212.4	650.58	-152.77	1273.9	438.47	-99.246	1306.3	342.63	-26.251	1283.9	253.22	-78.286	1292.1	257.75	-17.877	1235.2	571.48	-128.63	1030.5	898.15	-273.09	1196.3	639.48	168.23	1419.8	26.859	4.863	1283	174.3	-7.9462	1247	1169.2	6.26	975.54	265.86	123.47	1096.7	1498.5	-78.584	1283.2	786.47	275.35	899.6	225.62	114.49	765.2	97.537	129.02	1245.2	899.36	277.29	1105.7	398.84	31.204	813.15	32.58	85.351	1144.7	634.06	194.71	1149.7	719.85	211.15	1117.9	402.05	159.97	795.72	79.384	50.887	950.08	305.73	163.49	1045.8	1030	-238.65	801.68	212.94	51.157	984.82	787.92	-265.57	1247.5	433.81	29.759	1032.3	1186.1	12.872	1161.8	1006.2	259.73	1028.3	946.64	-33.258	1362.7	30.409	28.398	1033	1275.7	85.005	1170.9	35.621	-10.868	1092.2	1509.5	66.527	1235.8	84.231	31.176	1028.4	938.36	66.878	1133.6	996.19	185.28	777.07	216.94	129.69	739.7	253.92	88.067	1101.4	1399.1	-1.1528	1334.3	24.012	-55.956	1032.6	1010	-165.08	1229.7	62.863	-50.213
413	2.065	1236.4	1583.6	-53.187	1231.9	1586.6	46.493	1228.1	1304.9	0.15523	1215.7	901.73	-103.79	1205.2	895.17	144.96	1164	1342.5	165.98	1169.6	1173.9	222.23	1337.3	812.08	239.09	1348.6	746.36	288.64	1145.2	1344.4	-150.87	1112.7	1174.5	-214.17	1067.7	774.37	-275.14	1019.8	721.94	-310.53	1154.2	552.04	181.25	1066.4	310.08	129.45	1197	733.05	-172.74	1271.4	671.82	-135.4	1217.6	651.06	-153.1	1276.8	438.06	-99.809	1308.8	342.02	-26.937	1285.1	252.75	-78.784	1293.8	257.27	-18.432	1239.5	571.7	-129.02	1044	898.05	-274.17	1207.2	641.34	168.12	1419.8	26.849	4.7002	1283.9	173.9	-8.4069	1254.2	1170.1	6.6342	990.54	267.26	123.2	1104.6	1499.5	-78.839	1286.5	785.64	276.01	914.34	227.42	114.27	781.15	100.35	130.14	1250.4	899.26	277.49	1121.5	399.36	30.961	829.42	34.386	87.563	1155.6	634.91	194.59	1159.1	720.91	210.82	1133.2	402.77	159.99	811.91	81.36	52.368	965.41	307.16	163.38	1057.1	1030.2	-239.47	816.43	215.09	50.901	1000.1	787.11	-267.05	1250.9	433.75	29.332	1039.6	1187.3	12.683	1168.8	1007.3	259.55	1035.5	947.71	-33.479	1362.7	30.544	28.267	1040.3	1276.9	84.862	1170.8	35.634	-10.977	1100	1510.9	66.268	1236	84.292	31.01	1035.5	939.35	66.587	1140.7	997.42	184.98	791.68	219.39	129.4	753.8	255.74	87.43	1109	1400.3	-1.1851	1334.2	24.067	-56.181	1043.8	1009.9	-165.86	1229.6	62.802	-50.352
414	2.07	1244.3	1584.5	-53.559	1239.8	1587.9	46.105	1235.4	1306	0.36876	1222.9	902.95	-104.22	1212.2	896.49	144.74	1171	1343.7	166.02	1176.8	1175.1	222.21	1340.8	810.23	239.49	1351	744.59	289.3	1153.1	1345.5	-150.8	1122.3	1175.3	-214.16	1083.3	774.87	-276.33	1036.6	721.97	-312.36	1166.4	553.15	181.3	1081.9	311.21	129.14	1203.1	733.81	-172.95	1276.8	671.61	-135.8	1222.6	651.53	-153.36	1279.4	437.68	-100.31	1311	341.43	-27.563	1286.3	252.31	-79.24	1295.3	256.81	-18.945	1243.6	571.91	-129.36	1057.6	898.05	-275.19	1218	643.42	168.09	1419.8	26.863	4.5387	1284.7	173.53	-8.8382	1261.4	1171.1	7.0313	1005.8	268.72	122.94	1112.4	1500.6	-79.058	1289.6	784.92	276.69	929.39	229.12	114.05	797.85	102.79	131.17	1255.5	899.23	277.72	1137.2	400.25	30.76	846.69	36.188	89.552	1166.5	635.96	194.52	1168.3	722.14	210.56	1148.4	403.76	160.03	828.83	83.12	53.71	980.86	308.62	163.23	1068.4	1030.5	-240.24	831.55	216.95	50.596	1015.5	786.4	-268.42	1253.9	433.67	28.941	1046.9	1188.5	12.475	1175.7	1008.4	259.39	1042.8	948.84	-33.759	1362.6	30.68	28.149	1047.5	1278.2	84.688	1170.8	35.652	-11.075	1107.7	1512.4	66.045	1236.1	84.345	30.858	1042.6	940.42	66.248	1147.8	998.7	184.73	806.62	221.45	129.07	768.12	257.03	86.759	1116.4	1401.6	-1.2096	1334.2	24.122	-56.373	1055	1009.9	-166.6	1229.4	62.745	-50.476
